<svg width="12" height="12" viewBox="0 0 12 12" fill="none" xmlns="http://www.w3.org/2000/svg">
<rect width="12" height="12" rx="6" fill="white"/>
<path d="M5.83816 3.00008C5.79515 2.99895 5.75275 3.00965 5.71636 3.03082C5.67996 3.052 5.65122 3.08268 5.63379 3.11897C5.61635 3.15527 5.61101 3.19553 5.61845 3.23463C5.62589 3.27373 5.64577 3.3099 5.67556 3.33854C6.06048 3.70883 6.30669 4.18318 6.37807 4.69201C6.44945 5.20085 6.34225 5.71741 6.0722 6.16592C5.80214 6.61444 5.38344 6.97131 4.87749 7.1842C4.37155 7.39709 3.80499 7.4548 3.2609 7.34886C3.21886 7.3408 3.17518 7.34444 3.13539 7.35931C3.0956 7.37418 3.06149 7.39962 3.03739 7.4324C3.01329 7.46519 3.00028 7.50383 3 7.54344C2.99973 7.58306 3.01221 7.62185 3.03587 7.65491C3.34407 8.08481 3.76711 8.4342 4.26419 8.66941C4.76128 8.90461 5.31565 9.01769 5.87386 8.99775C6.43208 8.97782 6.97531 8.82553 7.4512 8.55557C7.9271 8.28562 8.31959 7.9071 8.59086 7.4565C8.86213 7.0059 9.00302 6.49842 8.99995 5.98298C8.99688 5.46754 8.84996 4.96152 8.57334 4.5137C8.29673 4.06588 7.89975 3.69136 7.42067 3.42625C6.94159 3.16113 6.39658 3.01436 5.83816 3.00008Z" fill="#AAAAAA"/>
</svg>
