<svg width="12" height="12" viewBox="0 0 12 12" fill="none" xmlns="http://www.w3.org/2000/svg">
<rect width="12" height="12" rx="6" fill="white"/>
<g clip-path="url(#clip0_919_21)">
<path d="M5.99995 8.91671C6.102 8.91672 6.2005 8.95419 6.27677 9.02201C6.35303 9.08982 6.40175 9.18327 6.4137 9.28462L6.41661 9.33337V9.75004C6.41649 9.85624 6.37583 9.95839 6.30293 10.0356C6.23002 10.1128 6.13038 10.1593 6.02436 10.1655C5.91835 10.1718 5.81395 10.1373 5.73251 10.0691C5.65108 10.0009 5.59874 9.90425 5.5862 9.79879L5.58328 9.75004V9.33337C5.58328 9.22287 5.62718 9.11689 5.70532 9.03875C5.78346 8.96061 5.88944 8.91671 5.99995 8.91671ZM8.63036 8.04587L8.66953 8.08046L8.9612 8.37212C9.03592 8.44711 9.07931 8.54772 9.08254 8.65353C9.08577 8.75935 9.0486 8.86242 8.97859 8.94182C8.90858 9.02123 8.81096 9.071 8.70558 9.08104C8.6002 9.09108 8.49494 9.06063 8.4112 8.99587L8.37203 8.96129L8.08036 8.66962C8.00846 8.59785 7.96526 8.50227 7.95889 8.40088C7.95251 8.29948 7.98341 8.19925 8.04576 8.11903C8.10811 8.03882 8.19762 7.98415 8.29745 7.9653C8.39728 7.94646 8.50056 7.96474 8.58786 8.01671L8.63036 8.04587ZM3.91953 8.08046C3.99127 8.1522 4.03437 8.24766 4.04073 8.34892C4.0471 8.45018 4.0163 8.55029 3.95411 8.63046L3.91953 8.66962L3.62786 8.96129C3.55288 9.03602 3.45226 9.0794 3.34645 9.08264C3.24064 9.08587 3.13756 9.0487 3.05816 8.97869C2.97876 8.90867 2.92898 8.81106 2.91895 8.70568C2.90891 8.60029 2.93936 8.49504 3.00411 8.41129L3.0387 8.37212L3.33036 8.08046C3.4085 8.00234 3.51446 7.95846 3.62495 7.95846C3.73543 7.95846 3.84139 8.00234 3.91953 8.08046ZM2.66661 5.58337C2.77281 5.58349 2.87496 5.62416 2.95218 5.69706C3.02941 5.76996 3.07588 5.8696 3.0821 5.97562C3.08832 6.08164 3.05383 6.18603 2.98567 6.26747C2.91751 6.34891 2.82082 6.40125 2.71536 6.41379L2.66661 6.41671H2.24995C2.14375 6.41659 2.0416 6.37592 1.96438 6.30302C1.88715 6.23012 1.84068 6.13048 1.83446 6.02446C1.82823 5.91844 1.86273 5.81405 1.93089 5.73261C1.99905 5.65117 2.09574 5.59883 2.2012 5.58629L2.24995 5.58337H2.66661ZM9.74994 5.58337C9.85614 5.58349 9.95829 5.62416 10.0355 5.69706C10.1127 5.76996 10.1592 5.8696 10.1654 5.97562C10.1717 6.08164 10.1372 6.18603 10.069 6.26747C10.0008 6.34891 9.90415 6.40125 9.7987 6.41379L9.74994 6.41671H9.33328C9.22708 6.41659 9.12493 6.37592 9.04771 6.30302C8.97049 6.23012 8.92401 6.13048 8.91779 6.02446C8.91157 5.91844 8.94606 5.81405 9.01422 5.73261C9.08238 5.65117 9.17907 5.59883 9.28453 5.58629L9.33328 5.58337H9.74994ZM3.5887 3.00421L3.62786 3.03879L3.91953 3.33046C3.99426 3.40544 4.03764 3.50606 4.04087 3.61187C4.0441 3.71768 4.00694 3.82075 3.93693 3.90016C3.86691 3.97956 3.7693 4.02933 3.66391 4.03937C3.55853 4.04941 3.45327 4.01896 3.36953 3.95421L3.33036 3.91962L3.0387 3.62796C2.96707 3.55616 2.92408 3.4607 2.91781 3.35947C2.91153 3.25824 2.94239 3.15821 3.0046 3.0781C3.06681 2.998 3.15609 2.94334 3.25572 2.92437C3.35535 2.9054 3.45848 2.92341 3.54578 2.97504L3.5887 3.00421ZM8.9612 3.03879C9.03294 3.11054 9.07603 3.206 9.0824 3.30726C9.08877 3.40852 9.05797 3.50862 8.99578 3.58879L8.9612 3.62796L8.66953 3.91962C8.59455 3.99435 8.49393 4.03774 8.38812 4.04097C8.28231 4.0442 8.17923 4.00703 8.09983 3.93702C8.02043 3.86701 7.97065 3.76939 7.96061 3.66401C7.95057 3.55863 7.98102 3.45337 8.04578 3.36962L8.08036 3.33046L8.37203 3.03879C8.45017 2.96068 8.55613 2.9168 8.66661 2.9168C8.7771 2.9168 8.88306 2.96068 8.9612 3.03879ZM5.99995 1.83337C6.102 1.83339 6.2005 1.87086 6.27677 1.93867C6.35303 2.00649 6.40175 2.09994 6.4137 2.20129L6.41661 2.25004V2.66671C6.41649 2.77291 6.37583 2.87505 6.30293 2.95228C6.23002 3.0295 6.13038 3.07597 6.02436 3.0822C5.91835 3.08842 5.81395 3.05393 5.73251 2.98576C5.65108 2.9176 5.59874 2.82091 5.5862 2.71546L5.58328 2.66671V2.25004C5.58328 2.13953 5.62718 2.03355 5.70532 1.95541C5.78346 1.87727 5.88944 1.83337 5.99995 1.83337ZM5.99995 3.91671C6.40814 3.91668 6.80736 4.03658 7.148 4.2615C7.48864 4.48642 7.7557 4.80646 7.91601 5.18186C8.07632 5.55726 8.12282 5.97149 8.04973 6.37309C7.97663 6.77469 7.78717 7.14597 7.50487 7.44081C7.22258 7.73566 6.85988 7.94108 6.46183 8.03155C6.06379 8.12203 5.64793 8.09358 5.26592 7.94973C4.8839 7.80589 4.55256 7.55299 4.31305 7.22244C4.07354 6.8919 3.93641 6.49827 3.9187 6.09046L3.91661 6.00004L3.9187 5.90962C3.942 5.37327 4.17145 4.86661 4.5592 4.49532C4.94696 4.12402 5.46309 3.91674 5.99995 3.91671Z" fill="#EBDB53"/>
</g>
<defs>
<clipPath id="clip0_919_21">
<rect width="10" height="10" fill="white" transform="translate(1 1)"/>
</clipPath>
</defs>
</svg>
