<svg width="19" height="16" viewBox="0 0 19 16" fill="none" xmlns="http://www.w3.org/2000/svg">
<path fill='#DDDDDD' d="M9.30163 0.11109C7.58586 0.109124 5.90536 0.598211 4.4586 1.52059C3.01185 2.44296 1.85927 3.7601 1.13699 5.31644C0.414708 6.87278 0.152899 8.60331 0.382481 10.3037C0.612063 12.004 1.32345 13.6031 2.43261 14.9122L2.59616 15.103H16.0071L16.1707 14.9122C17.2798 13.6031 17.9912 12.004 18.2208 10.3037C18.4504 8.60331 18.1886 6.87278 17.4663 5.31644C16.744 3.7601 15.5914 2.44296 14.1447 1.52059C12.6979 0.598211 11.0174 0.109124 9.30163 0.11109ZM13.99 5.27921L10.7627 8.44659C10.9276 8.79532 10.964 9.19114 10.8654 9.56409C10.7667 9.93704 10.5394 10.2631 10.2236 10.4847C9.90783 10.7063 9.52388 10.8091 9.13962 10.775C8.75535 10.7409 8.39552 10.572 8.1237 10.2983C7.85188 10.0245 7.68558 9.66351 7.65418 9.27902C7.62279 8.89452 7.72831 8.5113 7.95212 8.19709C8.17593 7.88287 8.50361 7.65788 8.87725 7.56188C9.25089 7.46588 9.64643 7.50505 9.99399 7.67246L13.2159 4.50508L13.99 5.27921ZM1.45133 8.64285H3.30487V9.73317H1.42952C1.42952 9.52056 1.40226 9.3134 1.40226 9.09533C1.40226 8.87727 1.41316 8.79549 1.42407 8.64285H1.45133ZM4.11171 3.19125L5.4528 4.53234L4.65142 5.28466L3.30487 3.94902C3.54655 3.67329 3.80703 3.41463 4.08445 3.17489L4.11171 3.19125ZM9.84679 3.13128H8.75647V1.22322H9.30163C9.50334 1.22322 9.68325 1.22322 9.84679 1.25048V3.13128ZM17.201 9.10078C17.201 9.3134 17.201 9.53146 17.1737 9.73862H15.2548V8.6483H17.1792C17.1901 8.79549 17.201 8.94814 17.201 9.10078Z"/>
</svg>
